<svg width="14" height="16" viewBox="0 0 14 16" fill="none" xmlns="http://www.w3.org/2000/svg">
<path fill-rule="evenodd" clip-rule="evenodd" d="M7.8494 11.7501C8.16098 11.4651 8.3176 11.107 8.3176 10.6789C8.3176 10.2507 8.16098 9.89257 7.8494 9.60762C7.53783 9.32114 7.14627 9.17943 6.67807 9.17943C6.20987 9.17943 5.81832 9.32114 5.50674 9.60762C5.1935 9.89257 5.03854 10.2507 5.03854 10.6789C5.03854 11.107 5.1935 11.4651 5.50674 11.7501C5.81832 12.035 6.20987 12.1905 6.67807 12.2149C7.14627 12.1905 7.53783 12.035 7.8494 11.7501ZM4.92024 2.2141C4.45204 2.64229 4.20378 3.17867 4.17879 3.82171V5.35771H9.17735V3.82171C9.15069 3.17867 8.9041 2.64229 8.4359 2.2141C7.96603 1.7859 7.3812 1.56038 6.67807 1.536C5.97494 1.56038 5.38844 1.7859 4.92024 2.2141ZM12.848 5.7859C13.1612 6.07086 13.3295 6.42895 13.3562 6.85714V14.5006C13.3295 14.9288 13.1612 15.2853 12.848 15.5718C12.5364 15.8568 12.1448 16 11.6766 16H1.67952C1.21132 16 0.819765 15.8568 0.508187 15.5718C0.194944 15.2853 0.026659 14.9288 0 14.5006V6.85714C0.026659 6.42895 0.194944 6.07086 0.508187 5.7859C0.819765 5.49943 1.21132 5.35771 1.67952 5.35771H2.49928V3.82171C2.52594 2.75048 2.93582 1.85143 3.72893 1.12457C4.5237 0.399238 5.50675 0.024381 6.67808 0C7.84941 0.024381 8.83246 0.399238 9.62557 1.12457C10.4203 1.85143 10.8302 2.75048 10.8569 3.82171V5.35771H11.6766C12.1448 5.35771 12.5364 5.49943 12.848 5.7859Z" fill="#999999"/>
</svg>
