<svg width="18" height="18" viewBox="0 0 18 18" fill="none" xmlns="http://www.w3.org/2000/svg">
<path d="M9 0.666672C4.4 0.666672 0.666664 4.40001 0.666664 9.00001C0.666664 13.6 4.4 17.3333 9 17.3333C13.6 17.3333 17.3333 13.6 17.3333 9.00001C17.3333 4.40001 13.6 0.666672 9 0.666672ZM9 15.6667C5.325 15.6667 2.33333 12.675 2.33333 9.00001C2.33333 5.32501 5.325 2.33334 9 2.33334C12.675 2.33334 15.6667 5.32501 15.6667 9.00001C15.6667 12.675 12.675 15.6667 9 15.6667ZM8.16666 12.3333H9.83333V14H8.16666V12.3333ZM9.50833 4.03334C7.79166 3.78334 6.275 4.84167 5.81666 6.35834C5.66666 6.84167 6.03333 7.33334 6.54166 7.33334H6.70833C7.05 7.33334 7.325 7.09167 7.44166 6.77501C7.70833 6.03334 8.5 5.52501 9.35833 5.70834C10.15 5.87501 10.7333 6.65 10.6667 7.45834C10.5833 8.57501 9.31666 8.81667 8.625 9.85834C8.625 9.86667 8.61666 9.86667 8.61666 9.87501C8.60833 9.89167 8.6 9.90001 8.59166 9.91667C8.51666 10.0417 8.44166 10.1833 8.38333 10.3333C8.375 10.3583 8.35833 10.375 8.35 10.4C8.34166 10.4167 8.34166 10.4333 8.33333 10.4583C8.23333 10.7417 8.16666 11.0833 8.16666 11.5H9.83333C9.83333 11.15 9.925 10.8583 10.0667 10.6083C10.0833 10.5833 10.0917 10.5583 10.1083 10.5333C10.175 10.4167 10.2583 10.3083 10.3417 10.2083C10.35 10.2 10.3583 10.1833 10.3667 10.175C10.45 10.075 10.5417 9.98334 10.6417 9.89167C11.4417 9.13334 12.525 8.51667 12.3 6.92501C12.1 5.47501 10.9583 4.25001 9.50833 4.03334Z" fill="#878787"/>
</svg>
